<?xml version="1.0" encoding="utf-8"?><!DOCTYPE svg PUBLIC "-//W3C//DTD SVG 1.1//EN" "http://www.w3.org/Graphics/SVG/1.1/DTD/svg11.dtd"><svg version="1.1" xmlns="http://www.w3.org/2000/svg" xmlns:xlink="http://www.w3.org/1999/xlink" width="32" height="32" viewBox="0 0 32 32" data-tags="tailwindcss"><g fill="#444" transform="scale(0.03125 0.03125)"><path fill="rgb(56, 178, 172)" d="M512.043 204.8c-136.533 0-221.867 68.267-256 204.8 51.2-68.267 110.933-93.867 179.2-76.8 38.955 9.728 66.773 37.973 97.621 69.291 50.219 50.944 108.288 109.909 235.179 109.909 136.533 0 221.867-68.267 256-204.8-51.2 68.267-110.933 93.867-179.2 76.8-38.955-9.728-66.773-37.973-97.621-69.291-50.176-50.944-108.245-109.909-235.179-109.909zM256.043 512c-136.533 0-221.867 68.267-256 204.8 51.2-68.267 110.933-93.867 179.2-76.8 38.955 9.728 66.773 37.973 97.621 69.291 50.219 50.944 108.288 109.909 235.179 109.909 136.533 0 221.867-68.267 256-204.8-51.2 68.267-110.933 93.867-179.2 76.8-38.955-9.728-66.773-37.973-97.621-69.291-50.176-50.944-108.245-109.909-235.179-109.909z" /></g></svg>